<svg xmlns="http://www.w3.org/2000/svg" viewBox="0 0 64 64" fill="none">
  <defs>
    <linearGradient id="g" x1="10" y1="10" x2="54" y2="54" gradientUnits="userSpaceOnUse">
      <stop stop-color="#10B981"/>
      <stop offset="1" stop-color="#059669"/>
    </linearGradient>
  </defs>
  <rect x="6" y="6" width="52" height="52" rx="16" fill="url(#g)"/>
  <!-- Simple brain mark -->
  <path
    d="M26.5 22.2c-3.3 0-6 2.7-6 6v1.2c-1.6.8-2.7 2.4-2.7 4.3 0 2.7 2.2 4.9 4.9 4.9h1.1c.8 2.2 2.9 3.8 5.4 3.8h4.6V22.2h-7.3Z"
    fill="white" opacity="0.95"
  />
  <path
    d="M37.5 22.2c3.3 0 6 2.7 6 6v1.2c1.6.8 2.7 2.4 2.7 4.3 0 2.7-2.2 4.9-4.9 4.9h-1.1c-.8 2.2-2.9 3.8-5.4 3.8h-4.6V22.2h7.3Z"
    fill="white" opacity="0.95"
  />
  <path
    d="M32 22.2v24.2"
    stroke="rgba(255,255,255,0.65)"
    stroke-width="2"
    stroke-linecap="round"
  />
</svg>

